<svg xmlns="http://www.w3.org/2000/svg" viewBox="0 0 720 420" width="720" height="420">
<defs>
  <style>
    text { font-family: "Helvetica Neue", Helvetica, sans-serif; }
    .axis      { font-size: 11px; fill: #666; }
    .stage     { font-size: 11px; fill: #333; font-weight: 600; text-anchor: middle; }
    .val-trad  { font-size: 10px; font-weight: 700; text-anchor: middle; fill: #4a7fa5; }
    .val-ai    { font-size: 10px; font-weight: 700; text-anchor: middle; fill: #e8a042; }
    .reduc-pct { font-size: 13px; fill: #c0392b; font-weight: 800; text-anchor: middle; }
    .reduc-arr { font-size: 16px; fill: #c0392b; font-weight: 900; text-anchor: middle; }
    .legend-txt{ font-size: 11px; fill: #333; }
    .caption   { font-size: 10px; fill: #888; font-style: italic; }
  </style>
</defs>
<rect width="720" height="420" fill="white"/>
<line x1="70" y1="340.0" x2="680" y2="340.0" stroke="#e8e8e8" stroke-width="1"/>
<text x="64" y="344.0" text-anchor="end" class="axis">0h</text>
<line x1="70" y1="295.0" x2="680" y2="295.0" stroke="#e8e8e8" stroke-width="1"/>
<text x="64" y="299.0" text-anchor="end" class="axis">5h</text>
<line x1="70" y1="250.0" x2="680" y2="250.0" stroke="#e8e8e8" stroke-width="1"/>
<text x="64" y="254.0" text-anchor="end" class="axis">10h</text>
<line x1="70" y1="205.0" x2="680" y2="205.0" stroke="#e8e8e8" stroke-width="1"/>
<text x="64" y="209.0" text-anchor="end" class="axis">15h</text>
<line x1="70" y1="160.0" x2="680" y2="160.0" stroke="#e8e8e8" stroke-width="1"/>
<text x="64" y="164.0" text-anchor="end" class="axis">20h</text>
<line x1="70" y1="115.0" x2="680" y2="115.0" stroke="#e8e8e8" stroke-width="1"/>
<text x="64" y="119.0" text-anchor="end" class="axis">25h</text>
<line x1="70" y1="70.0" x2="680" y2="70.0" stroke="#e8e8e8" stroke-width="1"/>
<text x="64" y="74.0" text-anchor="end" class="axis">30h</text>
<rect x="83.0" y="92.5" width="60.2" height="247.5" fill="#4a7fa5" rx="2"/>
<text x="113.1" y="87.5" class="val-trad">27.5h</text>
<rect x="149.2" y="322.0" width="60.2" height="18.0" fill="#e8a042" rx="2"/>
<text x="179.4" y="317.0" class="val-ai">2.0h</text>
<text x="179.4" y="297.0" class="reduc-arr">↓</text>
<text x="179.4" y="279.0" class="reduc-pct">92–93%</text>
<text x="146.2" y="358.0" class="stage">Research &amp;</text>
<text x="146.2" y="372.0" class="stage">Data Collection</text>
<rect x="235.5" y="295.0" width="60.2" height="45.0" fill="#4a7fa5" rx="2"/>
<text x="265.6" y="290.0" class="val-trad">5.0h</text>
<rect x="301.8" y="326.5" width="60.2" height="13.5" fill="#e8a042" rx="2"/>
<text x="331.9" y="321.5" class="val-ai">1.5h</text>
<text x="331.9" y="301.5" class="reduc-arr">↓</text>
<text x="331.9" y="283.5" class="reduc-pct">70%</text>
<text x="298.8" y="358.0" class="stage">Structure</text>
<text x="298.8" y="372.0" class="stage">Design</text>
<rect x="388.0" y="137.5" width="60.2" height="202.5" fill="#4a7fa5" rx="2"/>
<text x="418.1" y="132.5" class="val-trad">22.5h</text>
<rect x="454.2" y="335.5" width="60.2" height="4.5" fill="#e8a042" rx="2"/>
<text x="484.4" y="330.5" class="val-ai">0.5h</text>
<text x="484.4" y="310.5" class="reduc-arr">↓</text>
<text x="484.4" y="292.5" class="reduc-pct">98%</text>
<text x="451.2" y="358.0" class="stage">Draft</text>
<text x="451.2" y="372.0" class="stage">Writing</text>
<rect x="540.5" y="259.0" width="60.2" height="81.0" fill="#4a7fa5" rx="2"/>
<text x="570.6" y="254.0" class="val-trad">9.0h</text>
<rect x="606.8" y="268.0" width="60.2" height="72.0" fill="#e8a042" rx="2"/>
<text x="636.9" y="263.0" class="val-ai">8.0h</text>
<text x="636.9" y="243.0" class="reduc-arr">↓</text>
<text x="636.9" y="225.0" class="reduc-pct">~20%</text>
<text x="603.8" y="358.0" class="stage">Review &amp;</text>
<text x="603.8" y="372.0" class="stage">Final Editing</text>
<line x1="70" y1="70" x2="70" y2="340" stroke="#999" stroke-width="1.5"/>
<line x1="70" y1="340" x2="680" y2="340" stroke="#999" stroke-width="1.5"/>
<text x="14" y="205.0" transform="rotate(-90,14,205.0)" text-anchor="middle" class="axis">Hours</text>
<rect x="492" y="76" width="188" height="46" fill="white" stroke="#ddd" stroke-width="1" rx="4" opacity="0.9"/>
<rect x="500" y="84" width="12" height="10" fill="#4a7fa5" rx="2"/>
<text x="516" y="93" class="legend-txt">Traditional Method (est.)</text>
<rect x="500" y="102" width="12" height="10" fill="#e8a042" rx="2"/>
<text x="516" y="111" class="legend-txt">AI-Assisted (measured)</text>

</svg>